<svg xmlns="http://www.w3.org/2000/svg" xmlns:xlink="http://www.w3.org/1999/xlink" width="637" height="651" viewBox="0 0 637 651">
  <defs>
    <clipPath id="clip-path">
      <rect id="Rectangle_1413" data-name="Rectangle 1413" width="637" height="651" rx="22" transform="translate(190 146)" fill="#debf9a"/>
    </clipPath>
  </defs>
  <g id="Mask_Group_324" data-name="Mask Group 324" transform="translate(-190 -146)" clip-path="url(#clip-path)">
    <g id="Group_3060" data-name="Group 3060" transform="translate(-103.843 -120.617)" opacity="0.056">
      <g id="Group_3059" data-name="Group 3059">
        <g id="Group_3058" data-name="Group 3058">
          <g id="Group_3040" data-name="Group 3040" transform="translate(672.337 688.873)">
            <path id="Path_3436" data-name="Path 3436" d="M192.445,466.072,0,18.1,166.309,476.418Z" transform="translate(0 0)" fill="#663600"/>
          </g>
          <g id="Group_3041" data-name="Group 3041" transform="translate(754.016 684.809)">
            <path id="Path_3437" data-name="Path 3437" d="M301.653,335.369,0,56.749,240.9,389.3Z" transform="translate(0 0)" fill="#663600"/>
          </g>
          <g id="Group_3042" data-name="Group 3042" transform="translate(878.734 683.123)">
            <path id="Path_3438" data-name="Path 3438" d="M292.195,210.473,0,63.182,283.221,227.067Z" transform="translate(0 0)" fill="#663600"/>
          </g>
          <g id="Group_3043" data-name="Group 3043" transform="translate(752.03 508.229)">
            <path id="Path_3439" data-name="Path 3439" d="M486.648,159.53,0,118.943,477.595,220.809Z" fill="#663600"/>
          </g>
          <g id="Group_3044" data-name="Group 3044" transform="translate(923.007 465.916)">
            <path id="Path_3440" data-name="Path 3440" d="M302.071,3,0,80.724,308.268,33.2Z" transform="translate(0)" fill="#663600"/>
          </g>
          <g id="Group_3045" data-name="Group 3045" transform="translate(674.478 253.135)">
            <path id="Path_3441" data-name="Path 3441" d="M504.047,2.342,43.637,300.255,517.961,19.313Z" transform="translate(0 0)" fill="#663600"/>
          </g>
          <g id="Group_3046" data-name="Group 3046" transform="translate(750.783 78.5)">
            <path id="Path_3442" data-name="Path 3442" d="M260.447,6.918,58.489,294.989,292.776,24.3Z" transform="translate(0)" fill="#663600"/>
          </g>
          <g id="Group_3047" data-name="Group 3047" transform="translate(562.104 5.471)">
            <path id="Path_3443" data-name="Path 3443" d="M228.752,14.024,107.812,477.677,290.227,34.1Z" transform="translate(0 0)" fill="#663600"/>
          </g>
          <g id="Group_3048" data-name="Group 3048" transform="translate(525.565 47.362)">
            <path id="Path_3444" data-name="Path 3444" d="M71.7,5.29,92.354,369.175l.354-364.47Z" transform="translate(0 0)" fill="#663600"/>
          </g>
          <g id="Group_3049" data-name="Group 3049" transform="translate(367.663)">
            <path id="Path_3445" data-name="Path 3445" d="M1.905,30.978,230.349,527.237,47.028,11.267Z" transform="translate(0 0)" fill="#663600"/>
          </g>
          <g id="Group_3050" data-name="Group 3050" transform="translate(231.046 127.735)">
            <path id="Path_3446" data-name="Path 3446" d="M2.672,58.975,276.755,350.354,19.92,43.665Z" transform="translate(0 0)" fill="#663600"/>
          </g>
          <g id="Group_3051" data-name="Group 3051" transform="translate(54.323 201.544)">
            <path id="Path_3447" data-name="Path 3447" d="M11.371,139.455,454.438,344.686,40.135,86.265Z" transform="translate(0)" fill="#663600"/>
          </g>
          <g id="Group_3052" data-name="Group 3052" transform="translate(61.608 441.654)">
            <path id="Path_3448" data-name="Path 3448" d="M7.942,101.591,302.9,128.268,12.828,68.515Z" transform="translate(0 0)" fill="#663600"/>
          </g>
          <g id="Group_3053" data-name="Group 3053" transform="translate(76.34 598.08)">
            <path id="Path_3449" data-name="Path 3449" d="M14.818,136.645,315.8,45.61,3.289,80.461Z" transform="translate(0 0)" fill="#663600"/>
          </g>
          <g id="Group_3054" data-name="Group 3054" transform="translate(0 644.622)">
            <path id="Path_3450" data-name="Path 3450" d="M61.691,322.769,547.951,0,35.508,279.34Z" transform="translate(0 0)" fill="#663600"/>
          </g>
          <g id="Group_3055" data-name="Group 3055" transform="translate(121.239 746.471)">
            <path id="Path_3451" data-name="Path 3451" d="M95.854,397.059,392.373,0,73.465,379.311Z" transform="translate(0 0)" fill="#663600"/>
          </g>
          <g id="Group_3056" data-name="Group 3056" transform="translate(306.8 731.66)">
            <path id="Path_3452" data-name="Path 3452" d="M130.8,469.47,275.365,0,103.152,458.752Z" transform="translate(0 0)" fill="#663600"/>
          </g>
          <g id="Group_3057" data-name="Group 3057" transform="translate(547.783 790.834)">
            <path id="Path_3453" data-name="Path 3453" d="M97.608,316.848,79.627,0l-.308,317.357Z" transform="translate(0)" fill="#663600"/>
          </g>
        </g>
      </g>
    </g>
  </g>
</svg>
