<svg xmlns="http://www.w3.org/2000/svg" xmlns:xlink="http://www.w3.org/1999/xlink" width="115" height="115" viewBox="0 0 115 115">
  <defs>
    <clipPath id="clip-path">
      <rect id="Rectangle_137" data-name="Rectangle 137" width="115" height="115" transform="translate(-7219 135)" fill="#fff"/>
    </clipPath>
  </defs>
  <g id="Group_340" data-name="Group 340" transform="translate(7219 -135)">
    <g id="Group_339" data-name="Group 339">
      <g id="Group_338" data-name="Group 338" clip-path="url(#clip-path)">
        <g id="Group_337" data-name="Group 337">
          <g id="Group_336" data-name="Group 336" clip-path="url(#clip-path)">
            <path id="Path_229" data-name="Path 229" d="M-7146.68,191.214a6.458,6.458,0,0,0,3.06.777h12.721a7.007,7.007,0,0,0,6.8-7.186,7.008,7.008,0,0,0-6.8-7.187h-8.51a10.9,10.9,0,0,1,.354,1.472,10.829,10.829,0,0,1-3,9.426,10.663,10.663,0,0,1-4.625,2.7" fill="#fff"/>
            <path id="Path_230" data-name="Path 230" d="M-7156.418,220.383a10.785,10.785,0,0,1,4.56-8.8,10.783,10.783,0,0,1-4.56-8.8,10.8,10.8,0,0,1,5.742-9.535,11.181,11.181,0,0,1-1.721-1.974c-.123-.032-.247-.046-.368-.083a10.662,10.662,0,0,1-4.58-2.681l-10.836-10.836-4.258.01a18.6,18.6,0,0,1-18.866,16.615,2,2,0,0,1-2-2,2,2,0,0,1,2-2,14.622,14.622,0,0,0,14.966-14.584,2,2,0,0,1,1.967-2l2.454-.04h4.565a2,2,0,0,1,1.414.586l11.422,11.422c.048.048.1.088.154.133a6.726,6.726,0,0,0,2.733,1.541,6.955,6.955,0,0,0,1.767.281,6.739,6.739,0,0,0,4.98-1.955,6.827,6.827,0,0,0,1.883-5.942,6.865,6.865,0,0,0-.728-2.122,6.684,6.684,0,0,0-1.155-1.57l-1.934-1.935-11.99-11.989c-2.106-2.107-4.126-4.013-5.687-5.367a9.755,9.755,0,0,0-5.82-2.368l-.524-.031h-4.427c-19.708,0-36.995,16.321-36.995,34.926v6.03c0,18.6,17.287,34.924,36.995,34.924H-7150a10.805,10.805,0,0,1-6.42-9.86" fill="#fff"/>
            <path id="Path_231" data-name="Path 231" d="M-7143.62,195.991h-2a6.807,6.807,0,0,0-6.8,6.8,6.806,6.806,0,0,0,6.8,6.8h12.722a6.8,6.8,0,0,0,6.8-6.8,6.805,6.805,0,0,0-6.8-6.8Z" fill="#fff"/>
            <path id="Path_232" data-name="Path 232" d="M-7121.164,154.493h-13.76a3.972,3.972,0,0,0-.426-.043h-.662c-.077,0-.15-.023-.228-.023l-24.907-.04c1.508,1.345,3.3,3.045,5.17,4.915l13.922,13.923c.127.127.245.261.364.393h3.678l.008-.063h16.841c4.686,0,10.425-3.937,10.425-9.531s-5.739-9.531-10.425-9.531" fill="#fff"/>
            <path id="Path_233" data-name="Path 233" d="M-7145.622,227.18h5.479a6.8,6.8,0,0,0,6.8-6.8,6.8,6.8,0,0,0-6.8-6.8h-5.477a6.806,6.806,0,0,0-6.8,6.8,6.805,6.805,0,0,0,6.8,6.8" fill="#fff"/>
          </g>
        </g>
      </g>
    </g>
  </g>
</svg>
