<svg xmlns="http://www.w3.org/2000/svg" width="32" height="32" viewBox="0 0 32 32">
  <g id="Group_2914" data-name="Group 2914" transform="translate(0)">
    <g id="Group_642" data-name="Group 642" transform="translate(0 1.307)">
      <g id="Group_377" data-name="Group 377" transform="translate(0 0)">
        <path id="Path_278" data-name="Path 278" d="M0,10.97V2.5A2.427,2.427,0,0,1,2.5,0H5.485c3.945,0,7.1,2.6,7.1,6.736s-3.156,6.736-7.1,6.736H2.5A2.427,2.427,0,0,1,0,10.97ZM5.62,9.161a2.334,2.334,0,0,0,2.5-2.425,2.334,2.334,0,0,0-2.5-2.425H4.465v4.85Z" transform="translate(0 0.269)" fill="#fd6e0d"/>
        <path id="Path_279" data-name="Path 279" d="M0,11.49V2.1A2.069,2.069,0,0,1,2.156,0,2.44,2.44,0,0,1,4.234,1.116L6.813,4.581A20.975,20.975,0,0,1,8.2,6.621V2.5a2.247,2.247,0,1,1,4.465,0v9.411a2.064,2.064,0,0,1-2.136,2.1,2.473,2.473,0,0,1-2.1-1.116L5.7,9.43c-.4-.52-.866-1.213-1.232-1.79V11.49c0,1.482-.77,2.521-2.233,2.521S0,12.972,0,11.49Z" transform="translate(13.706 0)" fill="#fd6e0d"/>
        <path id="Path_280" data-name="Path 280" d="M7.2,13.01,5.427,10.855c-.423-.52-.6-.731-.962-1.232V11.74a2.163,2.163,0,0,1-2.232,2.271A2.163,2.163,0,0,1,0,11.74V2.271A2.163,2.163,0,0,1,2.232,0,2.163,2.163,0,0,1,4.465,2.271v2.04c.346-.5.539-.751.962-1.29l1.54-1.963a2.3,2.3,0,1,1,3.464,3L7.968,6.948l2.656,3C12.721,12.317,9.334,15.628,7.2,13.01Z" transform="translate(0 15.139)" fill="#fd6e0d"/>
        <path id="Path_281" data-name="Path 281" d="M0,11.49V2.1A2.069,2.069,0,0,1,2.156,0,2.44,2.44,0,0,1,4.234,1.116L6.813,4.581A20.988,20.988,0,0,1,8.2,6.621V2.5a2.247,2.247,0,1,1,4.465,0v9.411a2.064,2.064,0,0,1-2.136,2.1,2.473,2.473,0,0,1-2.1-1.116L5.7,9.43c-.4-.52-.866-1.213-1.232-1.79V11.49c0,1.482-.77,2.521-2.232,2.521S0,12.972,0,11.49Z" transform="translate(13.587 15.139)" fill="#fd6e0d"/>
        <path id="Path_282" data-name="Path 282" d="M2.382.019a1.986,1.986,0,0,1,1.75,1.6,5.016,5.016,0,0,1-.273,2.05,4.049,4.049,0,0,1-.973,1.991,1.633,1.633,0,0,1-1.3.386l-.019,0a1.633,1.633,0,0,1-1.15-.711A4.046,4.046,0,0,1,0,3.16,5.01,5.01,0,0,1,.274,1.11,1.986,1.986,0,0,1,2.382.019" transform="translate(27.604 15.146)" fill="#f11790"/>
      </g>
      <g id="Group_378" data-name="Group 378" transform="translate(26.95 27.591)">
        <path id="Path_283" data-name="Path 283" d="M1.517.738a.748.748,0,0,1-.758.738A.748.748,0,0,1,0,.738.748.748,0,0,1,.758,0,.748.748,0,0,1,1.517.738Zm-.223,0a.535.535,0,1,0-.535.535A.535.535,0,0,0,1.294.738ZM1.036.923A.136.136,0,0,1,1.069,1a.1.1,0,0,1-.11.109A.109.109,0,0,1,.87,1.064L.724.868H.7V1a.107.107,0,0,1-.11.112A.106.106,0,0,1,.477,1V.476A.108.108,0,0,1,.588.365H.807a.243.243,0,0,1,.252.251.243.243,0,0,1-.1.2ZM.7.689H.758a.073.073,0,1,0,0-.146H.7Z" transform="translate(0 0)" fill="#fd6e0d"/>
      </g>
    </g>
    <rect id="Rectangle_470" data-name="Rectangle 470" width="32" height="32" fill="none"/>
  </g>
</svg>
